<svg width="49" height="48" viewBox="0 0 49 48" fill="none" xmlns="http://www.w3.org/2000/svg">
<path d="M43.9171 18.0288C40.686 16.9373 37.7517 15.1123 35.3439 12.6969C32.9362 10.2815 31.1204 7.34134 30.0391 4.10684C29.6415 2.91116 28.8776 1.87096 27.8557 1.13382C26.8337 0.396677 25.6056 0 24.3456 0C23.0855 0 21.8575 0.396677 20.8355 1.13382C19.8136 1.87096 19.0497 2.91116 18.6521 4.10684C17.5713 7.34146 15.7558 10.2817 13.3482 12.6972C10.9406 15.1126 8.00619 16.9375 4.77509 18.0288C3.58157 18.4278 2.54371 19.1919 1.80832 20.2131C1.07293 21.2343 0.677246 22.4609 0.677246 23.7193C0.677246 24.9778 1.07293 26.2043 1.80832 27.2255C2.54371 28.2467 3.58157 29.0109 4.77509 29.4098C8.00579 30.501 10.9399 32.3255 13.3475 34.7404C15.7551 37.1552 17.5707 40.0948 18.6521 43.3288C19.0497 44.5245 19.8136 45.5647 20.8355 46.3018C21.8575 47.039 23.0855 47.4357 24.3456 47.4357C25.6056 47.4357 26.8337 47.039 27.8557 46.3018C28.8776 45.5647 29.6415 44.5245 30.0391 43.3288C31.1202 40.0941 32.9359 37.1537 35.3436 34.7382C37.7514 32.3226 40.6859 30.4974 43.9171 29.4058C45.1106 29.0069 46.1485 28.2427 46.8839 27.2215C47.6192 26.2003 48.0149 24.9738 48.0149 23.7153C48.0149 22.4569 47.6192 21.2303 46.8839 20.2091C46.1485 19.1879 45.1106 18.4238 43.9171 18.0248V18.0288ZM24.3461 29.0798C22.7659 27.1013 20.9717 25.3037 18.9961 23.7198C20.9717 22.1359 22.7659 20.3383 24.3461 18.3598C25.9269 20.3381 27.7214 22.1357 29.6971 23.7198C27.7212 25.304 25.9266 27.102 24.3461 29.0808V29.0798Z" fill="white"/>
</svg>
