<svg width="83" height="84" viewBox="0 0 83 84" fill="none" xmlns="http://www.w3.org/2000/svg">
<path d="M78.7247 36.519C71.3802 34.0383 64.71 29.8904 59.2369 24.4003C53.7639 18.9102 49.6366 12.2272 47.1787 4.87503C46.7812 3.67935 46.0172 2.63918 44.9953 1.90204C43.9734 1.1649 42.7453 0.768188 41.4852 0.768188C40.2252 0.768188 38.9971 1.1649 37.9752 1.90204C36.9532 2.63918 36.1893 3.67935 35.7917 4.87503C33.3342 12.2271 29.2072 18.9101 23.7343 24.4001C18.2613 29.89 11.5912 34.0377 4.24673 36.518C3.05358 36.9172 2.0161 37.6814 1.28101 38.7025C0.545909 39.7235 0.150391 40.9499 0.150391 42.208C0.150391 43.4662 0.545909 44.6925 1.28101 45.7136C2.0161 46.7347 3.05358 47.4988 4.24673 47.898C11.5911 50.3782 18.2612 54.5259 23.7341 60.0158C29.2069 65.5058 33.3336 72.1889 35.7907 79.541C36.1881 80.7371 36.952 81.7776 37.974 82.5151C38.9961 83.2525 40.2244 83.6494 41.4847 83.6494C42.7451 83.6494 43.9734 83.2525 44.9954 82.5151C46.0175 81.7776 46.7814 80.7371 47.1787 79.541C49.637 72.1894 53.7644 65.507 59.2375 60.0174C64.7105 54.5279 71.3806 50.3804 78.7247 47.9C79.9179 47.5008 80.9554 46.7367 81.6905 45.7156C82.4256 44.6945 82.8211 43.4682 82.8211 42.21C82.8211 40.9519 82.4256 39.7255 81.6905 38.7045C80.9554 37.6834 79.9179 36.9192 78.7247 36.52V36.519ZM41.4847 63.4C36.2568 54.7268 29 47.4536 20.3387 42.206C28.9996 36.9583 36.2562 29.6855 41.4847 21.013C46.7137 29.6858 53.9711 36.9586 62.6327 42.206C53.9709 47.4535 46.7134 54.7268 41.4847 63.4Z" fill="white"/>
</svg>
