<svg width="15" height="15" viewBox="0 0 15 15" fill="none" xmlns="http://www.w3.org/2000/svg">
<path d="M7.24489 14.356C8.66457 14.356 10.0524 13.935 11.2328 13.1463C12.4132 12.3576 13.3332 11.2365 13.8765 9.9249C14.4198 8.6133 14.5619 7.17004 14.285 5.77765C14.008 4.38525 13.3244 3.10625 12.3205 2.10239C11.3166 1.09853 10.0376 0.414891 8.64525 0.137927C7.25286 -0.139038 5.8096 0.00310993 4.49799 0.546396C3.18638 1.08968 2.06533 2.0097 1.27661 3.19012C0.487877 4.37054 0.0668945 5.75833 0.0668945 7.178C0.069012 9.08108 0.825943 10.9056 2.17162 12.2513C3.5173 13.597 5.34182 14.3539 7.24489 14.356Z" fill="white"/>
</svg>
