<svg width="23" height="22" viewBox="0 0 23 22" fill="none" xmlns="http://www.w3.org/2000/svg">
<path d="M22.2301 10.752C22.2299 8.63356 21.6015 6.56276 20.4244 4.80145C19.2473 3.04015 17.5744 1.66745 15.6171 0.856941C13.6599 0.0464335 11.5062 -0.165479 9.42852 0.248001C7.35083 0.661481 5.44241 1.68179 3.94459 3.17989C2.44676 4.67799 1.42682 6.5866 1.01372 8.66437C0.600631 10.7421 0.81295 12.8957 1.62382 14.8528C2.4347 16.8099 3.80771 18.4826 5.56923 19.6594C7.33076 20.8362 9.40167 21.4642 11.5201 21.464C14.3599 21.4608 17.0825 20.3312 19.0904 18.3229C21.0983 16.3146 22.2275 13.5918 22.2301 10.752Z" fill="white"/>
</svg>
